<svg xmlns="http://www.w3.org/2000/svg" data-name="Layer 1" viewBox="0 0 500 500"><defs><clipPath id="a"><path d="M148.11 233.2c-.8-4.72-1.01-11.66-.85-17.14.1-10.55 1.55-22.11 6.18-30 2.87-4.37 7.34-6.33 13.52-6.33 5.43 0 8.79 3.42 8.79 8.69 0 5.98-.75 12.36-.45 13.77.4 1.16.91 1.56 2.62 1.56 1 0 2.31-.65 3.87-2.36 3.32-3.37 8.64-8.59 13.07-12.31 4.72-4.02 8.34-5.83 13.21-5.83 6.03 0 8.49 4.12 8.49 8.29 0 3.12-2.21 6.43-6.23 9.8-3.62 2.91-8.74 5.98-13.01 8.19-3.22 1.56-4.67 2.51-4.67 3.37 0 .9.4 1.51 2.16 2.96 2.91 2.36 10.9 8.79 12.81 10.6 3.62 3.42 5.22 5.88 5.22 8.34 0 6.08-4.37 8.44-10.25 8.44-3.67 0-7.79-1.66-12.06-5.02-6.48-5.48-9.34-9.4-11.71-12.51-2.87-4.17-3.77-5.23-5.13-5.23-1.05 0-1.45 1.06-1.45 2.66 0 1.21-.1 6.63-.3 8.64-.85 7.89-4.32 11.41-10.85 11.41-8.09 0-11.51-3.62-12.96-10Zm74.58-.35c0-11.91 12.56-15.38 26.58-15.38 2.61 0 5.93.3 6.78.3 1.51 0 2.01-.5 2.01-1.66 0-1.91-.8-3.22-2.06-4.07-1.61-1.1-4.22-1.66-7.14-1.66-5.68 0-11.06 2.41-16.43 2.41-6.13 0-9.75-1.96-9.75-6.28 0-8.14 12.26-12.01 24.57-12.01 19.15 0 29.65 5.23 29.65 22.46 0 5.18-1.15 7.39-1.15 9.45 0 3.72 6.43 6.88 6.43 12.61 0 4.27-3.17 6.18-6.74 6.18-4.22 0-5.37-4.22-7.54-4.22-1.05 0-2.31.7-4.07 1.91-3.17 2.16-8.74 5.83-18.9 5.83-11.46 0-22.26-3.82-22.26-15.88Zm34.27-3.87c0-2.46-2.46-2.97-6.88-2.97-5.03 0-10.1 1.41-10.1 5.78 0 3.22 2.87 4.57 6.68 4.57 4.98 0 10.3-2.96 10.3-7.39Zm31.12 8.19c-.65-2.26-.9-5.28-.75-9.25.45-20.7 13.27-34.12 32.21-34.12s32.47 12.96 32.47 34.02c0 3.42-.45 6.23-1.31 8.54-1.81 4.47-5.28 6.88-10 6.88-8.34 0-10.25-3.52-11.1-9.5-.7-7.59-1.31-11.71-2.41-15.22-1.21-4.17-3.27-6.08-7.09-6.08-3.57 0-5.83 2.06-7.39 6.18-1.46 3.72-2.21 8.79-3.07 15.93-.9 6.89-5.83 8.69-11.66 8.69-5.07 0-8.34-1.76-9.9-6.08Zm-145.5 49.07c0-25.93 21.06-32.91 40.95-32.91 9.8 0 19.75 1.51 19.75 8.74 0 2.36-1.56 4.07-4.17 5.23-2.67.95-6.79.4-13.87.95-10.3.96-19.09 7.29-19.09 18.24s5.98 17.13 17.08 17.13c4.97 0 9.14-1.56 9.14-5.53 0-2.71-2.66-4.52-8.19-5.28-4.57-.75-7.79-2.61-7.79-7.44 0-5.78 6.84-7.89 15.08-7.89 14.47 0 23.97 5.38 23.97 18.19 0 19.65-16.08 24.57-36.93 24.57s-35.93-11.31-35.93-34.02Zm77.8 8.5c0-19.45 14.78-30 33.06-30s32.32 8.54 32.32 27.23c0 14.98-14.83 26.43-32.86 26.43-16.68 0-32.51-6.03-32.51-23.67Zm43.26-5.23c0-6.68-5.93-9.35-11.66-9.35s-11.01 3.62-11.01 10.5c0 5.93 4.12 9.7 10.85 9.7 8.29 0 11.81-5.68 11.81-10.85Zm28.41 5.23c0-19.45 14.77-30 33.06-30s32.31 8.54 32.31 27.23c0 14.98-14.82 26.43-32.86 26.43-16.68 0-32.51-6.03-32.51-23.67Zm43.26-5.23c0-6.68-5.93-9.35-11.66-9.35s-11.01 3.62-11.01 10.5c0 5.93 4.12 9.7 10.86 9.7 8.29 0 11.81-5.68 11.81-10.85Z" style="stroke-width:0;fill:none"/></clipPath></defs><g style="clip-path:url(#a)"><circle cx="280.12" cy="228.32" r="116.03" style="fill:#2db665;stroke-width:0"/><circle cx="280.12" cy="344.34" r="116.03" style="fill:#f0b521;stroke-width:0"/><circle cx="164.83" cy="234.92" r="116.03" style="fill:#ef5535;stroke-width:0"/><circle cx="164.83" cy="345.08" r="116.03" style="fill:#4a75fb;stroke-width:0"/></g></svg>